<svg xmlns="http://www.w3.org/2000/svg" viewBox="0 0 968.91 1198.6"><defs><style>.cls-1{fill:#cf3d3c;}.cls-2{fill:#fff;}</style></defs><g id="Layer_2" data-name="Layer 2"><g id="Layer_1-2" data-name="Layer 1"><path class="cls-1" d="M950,187.54a105.89,105.89,0,0,0-49.85-38.86L521.62,6.74a105.77,105.77,0,0,0-74.32,0L68.72,148.68A106,106,0,0,0,0,247.87V543A698.72,698.72,0,0,0,33.86,757a718.64,718.64,0,0,0,94.2,190.59c40.65,58.43,88.8,109.27,143.24,150.93,56,43,117,75,181.19,95.19a106.92,106.92,0,0,0,63.93,0c64.23-20.18,125.16-52.24,181.2-95.09,54.44-41.76,102.58-92.5,143.24-151A719.5,719.5,0,0,0,935.05,757.1,699.52,699.52,0,0,0,968.91,543V247.87A104.84,104.84,0,0,0,950,187.54ZM944.45,543a675.28,675.28,0,0,1-32.69,206.58,694.62,694.62,0,0,1-91,184c-39.17,56.4-85.61,105.38-138,145.59-53.92,41.23-112.35,71.91-173.64,91.17a82.34,82.34,0,0,1-49.26,0c-61.36-19.28-119.79-50-173.65-91.27-52.25-40-98.69-88.92-138-145.49a694.11,694.11,0,0,1-91-184.1A674,674,0,0,1,24.47,543V247.87A81.54,81.54,0,0,1,77.3,171.59L455.89,29.65a81.38,81.38,0,0,1,57.14,0L891.6,171.59a81.56,81.56,0,0,1,52.85,76.28Z"/><path class="cls-1" d="M753.39,425.21c-.37,3.15-.93,6.21-1,9.36-.74,30.83-1.85,61.66-2,92.59-.46,96-.55,192.12-.92,288.13a126.27,126.27,0,0,1-3.06,27.78c-5,21.94-21.11,32.78-43.14,29.07a75.72,75.72,0,0,1-22.69-7.5C640.89,844.09,601.45,823.07,562.1,802c-39-21-77.68-42.5-116.57-63.61C430,730,414.05,728.07,398,737.24c-4.07,2.31-7.68,5.55-11.94,7.31-5.93,2.32-12.41,5.28-18.52,5a105.68,105.68,0,0,1-50.09-14.44c-16.67-9.44-32.13-21-48.05-31.76-13.71-9.26-27.87-17.4-44.45-20.74-3.33-.65-6.94-3.52-9.07-6.48a250.92,250.92,0,0,1-33-60.27c-1.39-3.52-1.3-8.15-.56-12,3.52-19.26,8-38.33,11.11-57.68,2.87-17.41,3-35.19-1.76-52.31C188.69,483,184.34,472.43,180,462c-1.94-4.81-1.94-7.87,2.78-11.29,7.69-5.65,12.5-13.89,15.65-22.78,4.44-12.69,8.24-25.56,12.5-38.33,5.18-15.84,14.35-28.24,30.83-33.89,5.65-1.94,9.26-6.11,11.3-11.57,1.11-3.15,1.94-6.49,3-9.63,2.59-7.13,6-9.17,13.71-8.43,8.42.65,16.85,1.11,25.27,1.58,16.39.83,32.87.92,49.26,2.5,16.2,1.48,30.18,7.77,39.63,22.12a93.05,93.05,0,0,0,12.68,15c13.34,13.15,30.19,19.63,47.87,24.35,24.44,6.58,48.7,13.15,68.24,30.65,8.33,7.41,18.89,8.89,29.54,8.61,14.35-.28,22.22-8.61,22.59-23.05.18-9.17.09-18.33,1.11-27.41,2.78-23,14.26-39.72,36.39-48.24,12.68-4.81,25.83-5.37,39.16-6.29,14.35-.84,26.39,3.33,36.2,14.16,6.39,7,13.71,13,23.15,14.91,6.76,1.48,13.7,1.48,20.65,1.85,19.16,1.11,27.4,8.43,30.92,27.31a6.56,6.56,0,0,0,.93,1.76Z"/><path class="cls-2" d="M695.54,588.88c-5.54-16.94-18.48-26.65-34-33.12-12.63-5.24-25.27-10-37.74-15.25-6.47-2.77-8.63-9.7-4.16-15.1a19.31,19.31,0,0,1,9.24-6c13.86-3.86,25.88.92,37.13,8.78,8.62,5.85,18.48,4.46,24-3.24,6-8.16,4.62-18.33-4.62-24-8.94-5.55-18.64-10.78-28.81-13.87-19.41-5.7-38.51-3.85-55.15,9.09-29,22.49-20.18,64.86,9.4,75.49,11.09,4,21.87,8.63,32.81,13.4,5.24,2.16,10.47,4.47,14.79,7.7,7.39,5.4,7.7,12.94,1.23,19.57a24.68,24.68,0,0,1-16.95,7.55c-14.63.61-27.11-4-37.28-14.48-5.23-5.09-11.4-6.63-18.17-4.47-6.47,2.16-10.17,7.24-11.1,13.86-.77,6,1.85,10.94,6.17,15.26,15.86,15.71,35.43,23,62.23,24,5.09-1.54,15.1-3.08,23.88-7.24C691.85,636,702.94,611.07,695.54,588.88Zm-139.1-226.3c-25.12-24.19-55.46-36.05-90.12-36.82-34.82.62-65,12.48-90.28,36.51-8,7.55-8.78,18-2,25.11,6.62,7.24,16.94,6.93,25.11-.61,38.82-36.36,95.2-36.51,134,0,8,7.54,18.18,7.85,25,.77S564.29,370,556.44,362.58ZM509.3,411.26c-12.17-11.71-26.81-17.1-43.29-17.56-16.49.77-31,6-42.83,17.56-7.24,6.78-7.7,16.64-1.54,23.72,5.85,6.78,16.33,7.55,23.72,1.39,14.79-12,26.81-12.17,41.44,0,7.4,6,17.87,5.39,23.73-1.39C516.84,428.05,516.23,418,509.3,411.26Zm-43,72.87c-46.53,0-85,38.36-85,84.88.15,46.52,38.67,84.88,85,84.73s84.88-38.67,84.57-85.19C550.74,522.33,512.38,484.13,466.32,484.13Zm-.93,135.72c-27.88-.16-50.22-23.11-50.22-51.61.15-28,23.11-50.22,51.61-50.07,28,0,50.37,23,50.22,51.46C516.84,597.66,494,620,465.39,619.85ZM336.6,565.47a89.38,89.38,0,0,0-17.56-10c-11.86-5.08-24-9.7-36.05-14.48-3.69-1.54-6.62-3.39-7.08-7.85-.47-4.78,1.23-8.79,5.23-10.94a38.7,38.7,0,0,1,12.79-4c11.71-1.08,21.57,3.85,31,10.32,8.31,5.55,18,3.86,23.41-3.69,5.7-7.71,4.31-17.41-3.7-23.42a82.59,82.59,0,0,0-48.52-17.25c-12.79.61-25.27,3.39-36,11.71-28.81,22.49-21,65.16,9.24,75.79,5.24,1.85,10.32,4.31,15.56,6.47,9.55,4,19.41,7.24,28.5,12.32,12.79,6.94,12.17,19.11-.77,25.88a30.85,30.85,0,0,1-12.94,3.39c-13.86.62-25.73-4.16-35.74-13.86-7.55-7.55-17.72-7.7-24.65-.93-6.93,7.09-6.47,17,1.08,24.65A75.45,75.45,0,0,0,274.21,650c21.88,6.32,43,5.24,61.93-8.78C362.64,621.54,363,585.65,336.6,565.47Z"/><path class="cls-2" d="M929.91,201.45a81.48,81.48,0,0,0-38.31-29.86L513,29.65a81.38,81.38,0,0,0-57.14,0L77.3,171.6a81.57,81.57,0,0,0-52.83,76.27V543A674,674,0,0,0,57.15,749.51a694.32,694.32,0,0,0,91,184.11c39.35,56.56,85.79,105.5,138,145.48,53.86,41.29,112.29,72,173.65,91.27a82.34,82.34,0,0,0,49.26,0c61.29-19.25,119.72-49.93,173.64-91.16,52.44-40.22,98.88-89.2,138-145.59a695.23,695.23,0,0,0,91-184A675.39,675.39,0,0,0,944.45,543V247.87A80.75,80.75,0,0,0,929.91,201.45ZM921.77,543a652.67,652.67,0,0,1-31.6,199.65,672.32,672.32,0,0,1-88,178c-37.84,54.47-82.66,101.75-133.23,140.54-51.8,39.61-107.87,69.07-166.64,87.53a59.59,59.59,0,0,1-35.66,0c-58.83-18.48-114.9-48-166.65-87.64-50.4-38.55-95.21-85.8-133.22-140.43a671.42,671.42,0,0,1-88-178.1A651.54,651.54,0,0,1,47.14,543V247.87a58.9,58.9,0,0,1,38.11-55L463.85,50.89a58.63,58.63,0,0,1,41.21,0L883.64,192.83a58.87,58.87,0,0,1,38.13,55Z"/></g></g></svg>